ffmpeg started on 2016-11-30 at 15:00:28
Report written to "Output/x264/results/ffmpeg/old_town_cross_2160p50fast3000k.log"
Command line:
Tools/ffmpeg/ffmpeg -benchmark -y -i Input/y4m/old_town_cross_2160p50.y4m -c:v libx264 -preset fast -b:v 3000k -an Output/x264/encoded/old_town_cross_2160p50fast3000k.mkv
ffmpeg version N-82227-gdb23fde Copyright (c) 2000-2016 the FFmpeg developers
  built with gcc 5.4.0 (Ubuntu 5.4.0-6ubuntu1~16.04.2) 20160609
  configuration: --prefix=/home/jaroslav/ffmpeg_build --pkg-config-flags=--static --extra-cflags=-I/home/jaroslav/ffmpeg_build/include --extra-ldflags=-L/home/jaroslav/ffmpeg_build/lib --bindir=/home/jaroslav/bin --enable-gpl --enable-libass --enable-libfdk-aac --enable-libfreetype --enable-libmp3lame --enable-libopus --enable-libtheora --enable-libvorbis --enable-libvpx --enable-libx264 --enable-libx265 --enable-nvenc --enable-libmfx --enable-libxvid --enable-libgsm --enable-libopencore-amrnb --enable-version3 --enable-nonfree
  libavutil      55. 35.100 / 55. 35.100
  libavcodec     57. 66.101 / 57. 66.101
  libavformat    57. 57.100 / 57. 57.100
  libavdevice    57.  2.100 / 57.  2.100
  libavfilter     6. 66.100 /  6. 66.100
  libswscale      4.  3.100 /  4.  3.100
  libswresample   2.  4.100 /  2.  4.100
  libpostproc    54.  2.100 / 54.  2.100
Input #0, yuv4mpegpipe, from 'Input/y4m/old_town_cross_2160p50.y4m':
  Duration: 00:00:10.00, start: 0.000000, bitrate: 4976642 kb/s
    Stream #0:0: Video: rawvideo (I420 / 0x30323449), yuv420p(progressive), 3840x2160, SAR 1:1 DAR 16:9, 50 fps, 50 tbr, 50 tbn, 50 tbc
[libx264 @ 0x43a1120] using SAR=1/1
[libx264 @ 0x43a1120] using cpu capabilities: MMX2 SSE2Fast SSSE3 SSE4.2 AVX FMA3 AVX2 LZCNT BMI2
[libx264 @ 0x43a1120] profile High, level 5.2
[libx264 @ 0x43a1120] 264 - core 148 - H.264/MPEG-4 AVC codec - Copyleft 2003-2016 - http://www.videolan.org/x264.html - options: cabac=1 ref=2 deblock=1:0:0 analyse=0x3:0x113 me=hex subme=6 psy=1 psy_rd=1.00:0.00 mixed_ref=1 me_range=16 chroma_me=1 trellis=1 8x8dct=1 cqm=0 deadzone=21,11 fast_pskip=1 chroma_qp_offset=-2 threads=6 lookahead_threads=1 sliced_threads=0 nr=0 decimate=1 interlaced=0 bluray_compat=0 constrained_intra=0 bframes=3 b_pyramid=2 b_adapt=1 b_bias=0 direct=1 weightb=1 open_gop=0 weightp=1 keyint=250 keyint_min=25 scenecut=40 intra_refresh=0 rc_lookahead=30 rc=abr mbtree=1 bitrate=3000 ratetol=1.0 qcomp=0.60 qpmin=0 qpmax=69 qpstep=4 ip_ratio=1.40 aq=1:1.00
Output #0, matroska, to 'Output/x264/encoded/old_town_cross_2160p50fast3000k.mkv':
  Metadata:
    encoder         : Lavf57.57.100
    Stream #0:0: Video: h264 (libx264) (H264 / 0x34363248), yuv420p, 3840x2160 [SAR 1:1 DAR 16:9], q=-1--1, 3000 kb/s, 50 fps, 1k tbn, 50 tbc
    Metadata:
      encoder         : Lavc57.66.101 libx264
    Side data:
      cpb: bitrate max/min/avg: 0/0/3000000 buffer size: 0 vbv_delay: -1
Stream mapping:
  Stream #0:0 -> #0:0 (rawvideo (native) -> h264 (libx264))
Press [q] to stop, [?] for help
frame=   37 fps= 20 q=0.0 size=       0kB time=00:00:00.00 bitrate=N/A speed=   0x    frame=   46 fps= 19 q=49.0 size=       1kB time=00:00:00.06 bitrate=  96.3kbits/s speed=0.0249x    frame=   57 fps= 19 q=45.0 size=       1kB time=00:00:00.28 bitrate=  20.9kbits/s speed=0.0952x    frame=   66 fps= 18 q=44.0 size=       1kB time=00:00:00.46 bitrate=  12.7kbits/s speed=0.126x    frame=   76 fps= 18 q=43.0 size=       1kB time=00:00:00.66 bitrate=   8.9kbits/s speed=0.159x    frame=   86 fps= 18 q=43.0 size=       1kB time=00:00:00.86 bitrate=   6.8kbits/s speed=0.177x    frame=   97 fps= 18 q=42.0 size=       1kB time=00:00:01.08 bitrate=   5.4kbits/s speed=0.201x    frame=  106 fps= 17 q=42.0 size=       1kB time=00:00:01.26 bitrate=   4.7kbits/s speed=0.208x    frame=  117 fps= 18 q=42.0 size=       1kB time=00:00:01.48 bitrate=   4.0kbits/s speed=0.225x    frame=  126 fps= 17 q=42.0 size=       1kB time=00:00:01.66 bitrate=   3.5kbits/s speed=0.228x    frame=  137 fps= 18 q=42.0 size=       1kB time=00:00:01.88 bitrate=   3.1kbits/s speed=0.242x    frame=  146 fps= 17 q=42.0 size=       1kB time=00:00:02.06 bitrate=   2.8kbits/s speed=0.243x    frame=  157 fps= 17 q=42.0 size=       1kB time=00:00:02.28 bitrate=   2.6kbits/s speed=0.254x    frame=  166 fps= 17 q=42.0 size=       1kB time=00:00:02.46 bitrate=   2.4kbits/s speed=0.254x    frame=  177 fps= 17 q=42.0 size=       1kB time=00:00:02.68 bitrate=   2.2kbits/s speed=0.263x    frame=  186 fps= 17 q=42.0 size=       1kB time=00:00:02.86 bitrate=   2.1kbits/s speed=0.263x    frame=  197 fps= 17 q=42.0 size=       1kB time=00:00:03.08 bitrate=   1.9kbits/s speed=0.27x    frame=  206 fps= 17 q=42.0 size=       1kB time=00:00:03.26 bitrate=   1.8kbits/s speed=0.27x    frame=  217 fps= 17 q=42.0 size=       1kB time=00:00:03.48 bitrate=   1.7kbits/s speed=0.276x    frame=  226 fps= 17 q=42.0 size=       1kB time=00:00:03.66 bitrate=   1.6kbits/s speed=0.275x    frame=  237 fps= 17 q=42.0 size=       1kB time=00:00:03.88 bitrate=   1.5kbits/s speed=0.281x    frame=  246 fps= 17 q=42.0 size=       1kB time=00:00:04.06 bitrate=   1.4kbits/s speed=0.28x    frame=  252 fps= 16 q=42.0 size=       1kB time=00:00:04.18 bitrate=   1.4kbits/s speed=0.267x    frame=  254 fps= 16 q=42.0 size=       1kB time=00:00:04.22 bitrate=   1.4kbits/s speed=0.26x    frame=  256 fps= 15 q=42.0 size=       1kB time=00:00:04.26 bitrate=   1.4kbits/s speed=0.253x    frame=  261 fps= 15 q=42.0 size=       1kB time=00:00:04.36 bitrate=   1.3kbits/s speed=0.25x    frame=  266 fps= 15 q=42.0 size=       1kB time=00:00:04.46 bitrate=   1.3kbits/s speed=0.247x    frame=  271 fps= 15 q=42.0 size=       1kB time=00:00:04.56 bitrate=   1.3kbits/s speed=0.245x    frame=  276 fps= 14 q=42.0 size=       1kB time=00:00:04.66 bitrate=   1.3kbits/s speed=0.243x    frame=  281 fps= 14 q=42.0 size=       1kB time=00:00:04.76 bitrate=   1.2kbits/s speed=0.241x    frame=  286 fps= 14 q=42.0 size=       1kB time=00:00:04.86 bitrate=   1.2kbits/s speed=0.239x    frame=  295 fps= 14 q=42.0 size=    1694kB time=00:00:05.04 bitrate=2752.2kbits/s speed=0.241x    frame=  305 fps= 14 q=42.0 size=    1694kB time=00:00:05.24 bitrate=2647.2kbits/s speed=0.245x    frame=  315 fps= 14 q=42.0 size=    1694kB time=00:00:05.44 bitrate=2549.9kbits/s speed=0.246x    frame=  325 fps= 14 q=42.0 size=    1694kB time=00:00:05.64 bitrate=2459.5kbits/s speed=0.249x    frame=  335 fps= 14 q=42.0 size=    1694kB time=00:00:05.84 bitrate=2375.3kbits/s speed=0.25x    frame=  346 fps= 15 q=42.0 size=    1694kB time=00:00:06.06 bitrate=2289.1kbits/s speed=0.254x    frame=  355 fps= 14 q=42.0 size=    1694kB time=00:00:06.24 bitrate=2223.0kbits/s speed=0.254x    frame=  366 fps= 15 q=42.0 size=    1694kB time=00:00:06.46 bitrate=2147.3kbits/s speed=0.258x    frame=  375 fps= 15 q=42.0 size=    1694kB time=00:00:06.64 bitrate=2089.1kbits/s speed=0.258x    frame=  386 fps= 15 q=42.0 size=    1694kB time=00:00:06.86 bitrate=2022.1kbits/s speed=0.261x    frame=  395 fps= 15 q=42.0 size=    1694kB time=00:00:07.04 bitrate=1970.4kbits/s speed=0.261x    frame=  405 fps= 15 q=42.0 size=    1694kB time=00:00:07.24 bitrate=1916.0kbits/s speed=0.264x    frame=  415 fps= 15 q=42.0 size=    1694kB time=00:00:07.44 bitrate=1864.5kbits/s speed=0.264x    frame=  426 fps= 15 q=42.0 size=    1694kB time=00:00:07.66 bitrate=1811.0kbits/s speed=0.267x    frame=  435 fps= 15 q=42.0 size=    1694kB time=00:00:07.84 bitrate=1769.4kbits/s speed=0.267x    frame=  446 fps= 15 q=42.0 size=    1694kB time=00:00:08.06 bitrate=1721.1kbits/s speed=0.27x    frame=  455 fps= 15 q=42.0 size=    1694kB time=00:00:08.24 bitrate=1683.5kbits/s speed=0.269x    frame=  465 fps= 15 q=42.0 size=    1694kB time=00:00:08.44 bitrate=1643.6kbits/s speed=0.271x    frame=  474 fps= 15 q=42.0 size=    1694kB time=00:00:08.62 bitrate=1609.3kbits/s speed=0.273x    frame=  483 fps= 15 q=42.0 size=    1694kB time=00:00:08.80 bitrate=1576.4kbits/s speed=0.272x    frame=  491 fps= 15 q=42.0 size=    1694kB time=00:00:08.96 bitrate=1548.3kbits/s speed=0.273x    frame=  493 fps= 15 q=42.0 size=    1694kB time=00:00:09.00 bitrate=1541.4kbits/s speed=0.268x    frame=  495 fps= 14 q=43.0 size=    1694kB time=00:00:09.04 bitrate=1534.6kbits/s speed=0.264x    frame=  497 fps= 14 q=43.0 size=    1694kB time=00:00:09.08 bitrate=1527.8kbits/s speed=0.26x    frame=  500 fps= 14 q=-1.0 Lsize=    3695kB time=00:00:09.94 bitrate=3044.5kbits/s speed=0.27x    
video:3690kB audio:0kB subtitle:0kB other streams:0kB global headers:0kB muxing overhead: 0.115485%
bench: utime=102.008s
bench: maxrss=1602212kB
[libx264 @ 0x43a1120] frame I:3     Avg QP:38.67  size: 88428
[libx264 @ 0x43a1120] frame P:183   Avg QP:40.34  size:  9171
[libx264 @ 0x43a1120] frame B:314   Avg QP:42.36  size:  5843
[libx264 @ 0x43a1120] consecutive B-frames: 16.0%  0.8%  0.0% 83.2%
[libx264 @ 0x43a1120] mb I  I16..4: 14.8% 79.4%  5.8%
[libx264 @ 0x43a1120] mb P  I16..4:  0.1%  0.0%  0.0%  P16..4: 13.2%  0.4%  0.4%  0.0%  0.0%    skip:85.9%
[libx264 @ 0x43a1120] mb B  I16..4:  0.2%  0.1%  0.0%  B16..8:  8.9%  0.1%  0.0%  direct: 3.2%  skip:87.5%  L0:31.9% L1:68.0% BI: 0.1%
[libx264 @ 0x43a1120] final ratefactor: 34.38
[libx264 @ 0x43a1120] 8x8 transform intra:64.3% inter:97.2%
[libx264 @ 0x43a1120] coded y,uvDC,uvAC intra: 20.0% 25.7% 4.6% inter: 1.2% 1.2% 0.0%
[libx264 @ 0x43a1120] i16 v,h,dc,p: 48% 38%  7%  7%
[libx264 @ 0x43a1120] i8 v,h,dc,ddl,ddr,vr,hd,vl,hu: 27% 17% 38%  2%  3%  2%  5%  2%  4%
[libx264 @ 0x43a1120] i4 v,h,dc,ddl,ddr,vr,hd,vl,hu: 28% 35%  8%  5%  6%  4%  8%  3%  4%
[libx264 @ 0x43a1120] i8c dc,h,v,p: 85%  7%  8%  0%
[libx264 @ 0x43a1120] Weighted P-Frames: Y:0.5% UV:0.0%
[libx264 @ 0x43a1120] ref P L0: 80.0% 20.0%
[libx264 @ 0x43a1120] ref B L0: 91.0%  9.0%
[libx264 @ 0x43a1120] ref B L1: 96.8%  3.2%
[libx264 @ 0x43a1120] kb/s:3022.52
